<?xml version="1.0" encoding="utf-8"?>
<!-- Generator: Adobe Illustrator 27.5.0, SVG Export Plug-In . SVG Version: 6.00 Build 0)  -->
<svg version="1.1" id="Layer_1" xmlns="http://www.w3.org/2000/svg" xmlns:xlink="http://www.w3.org/1999/xlink" x="0px" y="0px"
	 viewBox="0 0 4000 4000" style="enable-background:new 0 0 4000 4000;" xml:space="preserve">
<rect style="fill-rule:evenodd;clip-rule:evenodd;fill:none;" width="4000" height="4000"/>
<path style="fill-rule:evenodd;clip-rule:evenodd;fill:#1C2A39;" d="M2624.795,2983.875v-59.18h43.811v10.001h-31.825v13.139h29.593
	v10.005h-29.593v16.036h32.981v10H2624.795z M2524.149,2983.875v-59.18h11.604l24.354,39.661v-39.661h11.076v59.18h-11.974
	l-23.981-38.903v38.903H2524.149z M2459.82,2983.875v-59.18h11.987v59.18H2459.82z M2369.129,2983.875v-58.691h11.982v48.691h29.679
	v10H2369.129z M2291.071,2962.138v-10h25.711v23.61c-2.494,2.44-6.118,4.571-10.871,6.43c-4.739,1.851-9.547,2.766-14.422,2.766
	c-6.186,0-11.574-1.291-16.172-3.891c-4.591-2.608-8.046-6.341-10.363-11.179c-2.313-4.83-3.47-10.11-3.47-15.796
	c0-6.177,1.293-11.66,3.869-16.463c2.595-4.793,6.368-8.486,11.339-11.048c3.8-1.973,8.517-2.952,14.163-2.952
	c7.344,0,13.089,1.545,17.225,4.63c4.113,3.102,6.776,7.36,7.96,12.813l-11.905,2.23c-0.826-2.907-2.394-5.206-4.695-6.902
	c-2.29-1.683-5.156-2.517-8.603-2.517c-5.207,0-9.352,1.65-12.422,4.969c-3.075,3.32-4.613,8.237-4.613,14.758
	c0,7.035,1.552,12.31,4.672,15.828c3.12,3.51,7.201,5.275,12.259,5.275c2.489,0,4.998-0.499,7.505-1.474
	c2.521-0.981,4.672-2.182,6.477-3.584v-7.505H2291.071z M2194.316,2960.401l-8.227-21.905l-7.991,21.905H2194.316z
	 M2216.22,2983.875h-12.912l-5.107-13.473h-23.742l-4.917,13.473h-12.677l22.982-59.18h12.662L2216.22,2983.875z M2090.903,2983.875
	v-49.179h-17.526v-10.001h46.955v10.001h-17.448v49.179H2090.903z M1958.545,2983.875v-59.18h43.806v10.001h-31.824v13.139h29.593
	v10.005h-29.593v16.036h32.986v10H1958.545z M1848.569,2983.875v-59.18h17.955l10.604,40.365l10.484-40.365h17.996v59.18h-11.08
	l-0.045-46.595l-11.665,46.595h-11.515l-11.616-46.595l-0.04,46.595H1848.569z M1753.328,2954.243
	c0,6.712,1.552,11.796,4.654,15.265c3.097,3.456,7.038,5.194,11.809,5.194c4.776,0,8.689-1.723,11.764-5.152
	c3.053-3.443,4.581-8.595,4.581-15.47c0-6.79-1.483-11.865-4.472-15.198c-2.974-3.352-6.93-5.011-11.873-5.011
	c-4.934,0-8.917,1.691-11.937,5.07C1754.843,2942.328,1753.328,2947.422,1753.328,2954.243z M1741.01,2954.646
	c0-6.042,0.907-11.112,2.714-15.216c1.338-3.011,3.182-5.728,5.513-8.128c2.323-2.394,4.872-4.168,7.648-5.342
	c3.691-1.555,7.945-2.344,12.766-2.344c8.736,0,15.707,2.715,20.953,8.131c5.233,5.428,7.851,12.966,7.851,22.622
	c0,9.574-2.598,17.067-7.792,22.463c-5.197,5.416-12.155,8.113-20.849,8.113c-8.803,0-15.814-2.685-21.007-8.067
	C1743.61,2971.504,1741.01,2964.094,1741.01,2954.646z M1644.265,2964.702l11.651-1.157c0.702,3.901,2.109,6.744,4.245,8.581
	c2.136,1.832,5.016,2.744,8.64,2.744c3.829,0,6.726-0.816,8.662-2.44c1.942-1.629,2.922-3.525,2.922-5.705
	c0-1.406-0.413-2.59-1.224-3.584c-0.813-0.979-2.25-1.827-4.281-2.549c-1.394-0.494-4.568-1.35-9.52-2.589
	c-6.385-1.597-10.857-3.557-13.433-5.883c-3.624-3.261-5.43-7.246-5.43-11.94c0-3.021,0.853-5.856,2.546-8.486
	c1.713-2.63,4.168-4.635,7.374-6.01c3.206-1.379,7.07-2.067,11.609-2.067c7.403,0,12.976,1.646,16.713,4.934
	c3.75,3.293,5.705,7.669,5.896,13.166l-11.987,0.413c-0.507-3.053-1.597-5.243-3.266-6.582c-1.664-1.333-4.173-2.013-7.505-2.013
	c-3.443,0-6.141,0.722-8.086,2.15c-1.253,0.925-1.886,2.149-1.886,3.691c0,1.406,0.589,2.608,1.773,3.601
	c1.505,1.279,5.157,2.598,10.956,3.978c5.797,1.36,10.088,2.798,12.854,4.257c2.784,1.475,4.962,3.47,6.531,6.019
	c1.568,2.553,2.354,5.688,2.354,9.424c0,3.389-0.939,6.573-2.821,9.529c-1.891,2.966-4.549,5.17-7.992,6.603
	c-3.446,1.447-7.745,2.158-12.884,2.158c-7.483,0-13.225-1.719-17.235-5.174C1647.434,2976.33,1645.048,2971.3,1644.265,2964.702z
	 M1551.319,2983.875v-59.18h43.805v10.001h-31.823v13.139h29.593v10.005h-29.593v16.036h32.984v10H1551.319z M1440.472,2983.875
	l-13.91-59.18h12.313l8.808,40.655l10.803-40.655h14.246l10.326,41.344l9.012-41.344h12.027l-14.264,59.18h-12.798l-11.66-44.245
	l-11.76,44.245H1440.472z M1367.671,2960.401l-8.222-21.905l-7.995,21.905H1367.671z M1389.577,2983.875h-12.908l-5.107-13.473
	h-23.742l-4.917,13.473h-12.676l22.977-59.18h12.662L1389.577,2983.875z"/>
<path style="fill-rule:evenodd;clip-rule:evenodd;fill:#1C2A39;" d="M3006.356,2794.706v-76.469
	c0-18.831,11.878-35.335,30.994-35.335c19.121,0,26.945,15.923,26.945,34.754v77.05h35.33v-77.05
	c0-42.867-19.979-67.78-60.532-67.78c-18.545,0-35.049,5.792-47.793,26.073c-8.118-19.7-25.203-26.654-42.296-26.654
	c-13.614,0-30.117,5.221-37.656,19.697l-2.603-17.379h-32.735v143.093h35.338v-76.469c0-18.831,11.302-35.916,30.415-35.916
	c19.406,0,29.257,17.084,29.257,35.916v76.469H3006.356z M2652.052,2651.903v75.028c0,44.309,24.913,70.092,59.091,70.092
	c19.987,0,33.607-6.952,48.377-21.433l2.313,19.116h31.573v-142.803h-35.048v72.85c0,21.87-14.771,40.114-36.495,40.114
	c-22.594,0-34.468-16.503-34.468-38.228v-74.737H2652.052z M2570.608,2666.678c-16.508-14.486-33.312-18.825-55.617-18.825
	c-26.068,0-60.246,11.582-60.246,44.6c0,32.445,32.151,42.292,59.086,44.319c20.281,1.16,28.386,5.219,28.386,15.065
	c0,10.427-12.454,17.38-25.775,17.089c-15.927-0.29-39.103-8.689-49.243-19.982l-17.379,25.198
	c20.852,21.724,43.447,25.484,66.042,25.484c40.844,0,61.408-21.724,61.408-46.922c0-37.948-34.183-44.029-61.118-45.765
	c-18.246-1.162-26.649-6.373-26.649-15.643c0-8.976,9.265-14.196,26.068-14.196c13.62,0,25.202,3.188,35.344,12.745
	L2570.608,2666.678z M2260.617,2854.376v-76.474c10.14,15.643,32.445,20.282,47.507,20.282c45.76,0,72.124-33.026,72.124-74.734
	c0-42-29.257-74.737-73.286-74.737c-16.214,0-35.335,6.953-46.345,22.886l-2.314-19.697h-33.026v202.473H2260.617z
	 M2304.355,2764.006c-24.036,0-40.549-18.251-40.549-40.556c0-22.303,15.06-40.549,40.549-40.549
	c25.494,0,40.555,18.246,40.555,40.549C2344.91,2745.756,2328.401,2764.006,2304.355,2764.006z M2140.65,2794.706v-203.054h-37.948
	v203.054H2140.65z M1860.791,2794.706v-76.469c0-18.831,11.873-35.335,30.994-35.335c19.116,0,26.945,15.923,26.945,34.754v77.05
	h35.33v-77.05c0-42.867-19.983-67.78-60.532-67.78c-18.545,0-35.049,5.792-47.798,26.073c-8.113-19.7-25.198-26.654-42.291-26.654
	c-13.614,0-30.122,5.221-37.656,19.697l-2.603-17.379h-32.735v143.093h35.338v-76.469c0-18.831,11.302-35.916,30.413-35.916
	c19.407,0,29.258,17.084,29.258,35.916v76.469H1860.791z M1543.858,2706.648c5.211-18.535,20.852-27.805,39.973-27.805
	c20.273,0,34.759,9.27,37.076,27.805H1543.858z M1654.795,2735.905c5.505-58.804-24.332-88.343-72.125-88.343
	c-46.346,0-75.892,31.281-75.892,74.729c0,45.765,29.257,76.183,78.496,76.183c21.732,0,46.35-7.533,61.411-23.175l-22.594-22.305
	c-8.109,8.404-25.198,13.326-38.237,13.326c-24.906,0-40.259-12.745-42.576-30.415H1654.795z M1336.12,2651.903v142.803h35.338
	v-75.309c0-26.364,17.094-36.213,35.629-36.213c11.589,0,18.251,3.187,25.493,9.27l15.932-30.704
	c-7.824-7.814-22.015-13.606-36.791-13.606c-14.481,0-29.252,2.603-40.264,20.268l-2.603-16.508H1336.12z M1186.029,2681.159
	c23.751,0,38.818,20.854,38.818,42.291c0,21.724-13.035,41.997-38.818,41.997c-25.778,0-38.818-20.273-38.818-41.997
	C1147.211,2702.013,1160.54,2681.159,1186.029,2681.159z M1185.738,2649.005c-45.478,0-73.865,33.605-73.865,74.445
	c0,41.136,27.813,74.442,74.156,74.442c46.346,0,74.442-33.306,74.442-74.442
	C1260.471,2682.611,1231.218,2649.005,1185.738,2649.005z M900.37,2591.652v203.054h142.517v-35.339H938.607v-167.714H900.37z"/>
<g>
	<defs>
		<path id="SVGID_1_" d="M2224.24,1270.495c-96.774-1.211-193.937,34.866-267.359,108.289l-12.677,12.675
			c10.254-7.764,22.99-12.38,36.736-12.38h243.299V1270.495z M2519.114,1861.023c40.917-55.87,64.228-120.832,69.98-187.062h-69.98
			V1861.023z M1940.712,1596.376l116.879-116.882c88.874-88.869,235.009-88.869,323.878,0c88.867,88.869,88.867,235.008,0,323.877
			l-131.996,132c1.941,3.817,4.477,7.292,7.478,10.299l-0.018,0.017c7.293,7.28,17.361,11.806,28.428,11.806h143.409l53.413-53.412
			c5.569-5.569,10.892-11.288,16.036-17.124v-223.44v-10.444h10.445h81.658c2.789-90.007-26.722-180.858-88.542-253.105h-3.56
			v-4.059c-5.139-5.832-10.467-11.557-16.036-17.124c-65.758-65.753-150.548-101.565-237.056-107.464v118.202v10.444h-10.444
			h-253.743c-11.08,0-21.135,4.517-28.406,11.792v0.042c-7.297,7.292-11.823,17.356-11.823,28.418V1596.376z M1395.948,1803.371
			c-88.869-88.869-88.869-235.008,0-323.877c88.869-88.869,235.009-88.869,323.878,0l168.884,168.884l31.263-31.261
			c-0.101-1.419-0.155-2.853-0.155-4.294v-172.604c0-13.712,4.563-26.396,12.246-36.618l-43.354,43.352l-68.174-68.169
			c-144.457-144.459-380.841-144.459-525.298,0c-144.457,144.457-144.457,380.84,0,525.297l68.17,68.175l525.302,525.302
			l519.172-519.176h-122.521c-16.79,0-32.064-6.875-43.136-17.945h-0.04c-2.98-2.981-5.656-6.269-7.974-9.806l-345.502,345.497
			L1395.948,1803.371z"/>
	</defs>
	<clipPath id="SVGID_00000083770219237169246530000001184753757336456603_">
		<use xlink:href="#SVGID_1_"  style="overflow:visible;"/>
	</clipPath>
	
		<linearGradient id="SVGID_00000045611259200565223190000015189925851857426051_" gradientUnits="userSpaceOnUse" x1="1883.4474" y1="2844.1802" x2="1864.2472" y2="1211.1134">
		<stop  offset="0" style="stop-color:#003780"/>
		<stop  offset="1" style="stop-color:#29C5FF"/>
	</linearGradient>
	
		<rect x="1150.781" y="1234.325" style="clip-path:url(#SVGID_00000083770219237169246530000001184753757336456603_);fill:url(#SVGID_00000045611259200565223190000015189925851857426051_);" width="1442.331" height="1263.233"/>
</g>
<g>
	<defs>
		<path id="SVGID_00000156573963147535573880000005248128305394609054_" d="M2234.684,1135.783v253.745h-253.739
			c-27.874,0-50.683,22.807-50.683,50.682v172.621c0,27.874,22.809,50.681,50.683,50.681h253.739v253.745
			c0,27.874,22.804,50.681,50.681,50.681h172.623c27.873,0,50.682-22.807,50.682-50.681v-253.745h253.748
			c27.879,0,50.683-22.807,50.683-50.681v-172.621c0-27.874-22.804-50.682-50.683-50.682H2508.67v-253.745
			c0-27.874-22.809-50.681-50.682-50.681h-172.623C2257.488,1085.101,2234.684,1107.909,2234.684,1135.783"/>
	</defs>
	<clipPath id="SVGID_00000152241116384063809460000015590558228992701863_">
		<use xlink:href="#SVGID_00000156573963147535573880000005248128305394609054_"  style="overflow:visible;"/>
	</clipPath>
	
		<linearGradient id="SVGID_00000183222273667491831730000005435191997453836465_" gradientUnits="userSpaceOnUse" x1="1975.9531" y1="2506.3657" x2="2564.0918" y2="1050.1007">
		<stop  offset="0" style="stop-color:#045304"/>
		<stop  offset="1" style="stop-color:#B0F122"/>
	</linearGradient>
	
		<rect x="1930.262" y="1085.101" style="clip-path:url(#SVGID_00000152241116384063809460000015590558228992701863_);fill:url(#SVGID_00000183222273667491831730000005435191997453836465_);" width="882.838" height="882.836"/>
</g>
</svg>
